<svg width="182" height="182" viewBox="0 0 182 182" fill="none" xmlns="http://www.w3.org/2000/svg">
<rect width="182" height="182" rx="52" fill="#FFEE58"/>
<path d="M132.9 141.552C128.894 139.889 122.016 137.697 113.248 137.773C103.119 137.849 95.334 141.023 91.3279 143.064C86.8684 141.401 80.0657 139.511 71.6757 139.285C61.6984 139.058 53.8375 141.25 49 143.064C49.1512 140.418 49.6803 136.639 51.2676 132.482C52.6281 128.929 54.3666 126.133 55.8027 124.168C59.4308 122.807 65.2509 121.144 72.4315 121.144C80.8971 121.144 87.4731 123.336 91.3279 124.923C94.2002 123.79 97.5259 122.731 101.154 121.9C102.439 121.598 103.648 121.371 104.858 121.144C105.992 119.859 107.654 118.121 109.468 115.853C111.509 113.359 114.684 109.428 117.027 105.271C120.806 98.544 121.789 92.2704 122.318 88.6423C122.923 84.6363 122.998 80.9326 122.847 77.758C119.295 91.439 106.899 101.492 92.0838 101.492C74.5479 101.492 60.3378 87.2818 60.3378 69.7459C60.3378 52.2101 74.5479 38 92.0838 38C104.177 38 114.684 44.7271 120.05 54.6288C122.62 59.2395 127.76 70.275 126.853 84.8631C125.644 104.44 114.306 116.987 110.98 120.388C112.719 120.162 115.062 120.01 117.783 120.388C121.789 120.917 124.888 122.354 126.853 123.412C128.138 125.377 129.499 127.871 130.632 130.97C132.144 135.127 132.673 138.831 132.9 141.552Z" fill="#050505"/>
<path d="M115.364 59.164C115.137 59.164 114.835 59.2396 114.608 59.2396C113.55 59.7687 112.643 59.7687 111.962 58.5593C111.055 55.687 113.021 53.9486 114.608 52.1345C115.817 51.5298 116.498 52.5124 117.178 53.1171C117.405 53.1927 117.631 53.3439 117.707 53.4951C117.707 54.9312 119.748 55.8382 118.69 57.5011C117.631 58.1814 116.422 58.5593 115.364 59.164Z" fill="#FFEE58"/>
<path d="M120.808 79.95V79.8744C120.505 80.5547 120.052 81.0082 119.371 81.3105C118.767 81.3105 118.389 81.0838 118.162 80.5547C117.935 79.4209 118.162 78.2871 117.709 77.1533C116.65 74.5834 114.307 75.7172 112.493 75.2637C111.284 74.5834 110.755 73.4496 110.15 72.3158C109.394 70.5774 109.167 68.7633 108.941 66.9493C108.941 66.1934 109.167 65.5131 109.545 64.9085C111.511 63.17 111.813 60.071 114.458 58.9372C114.836 58.8616 115.139 58.786 115.517 58.786C116.424 58.9372 117.255 59.164 118.086 59.6175C119.901 60.978 121.488 62.5653 121.941 64.9085C121.866 65.8911 122.395 66.7981 122.319 67.7807C122.319 69.368 122.395 70.9553 122.244 72.5426C121.941 75.0369 121.034 77.4557 120.808 79.95Z" fill="#FFEE58"/>
<path d="M118.539 80.3278C118.765 80.5546 118.992 80.7813 119.219 81.0081C120.277 81.8395 118.992 82.8222 119.295 83.7292C119.068 84.0315 118.841 84.4095 118.614 84.7118C117.632 84.3339 117.783 83.3513 117.48 82.5954C117.103 81.9151 117.027 81.2349 117.48 80.479C117.858 80.2522 118.161 80.1767 118.539 80.3278Z" fill="#FFEE58"/>
<path d="M119.37 83.7292C117.859 82.8978 119.673 81.9152 119.295 81.0082C119.522 80.1767 120.353 80.2523 120.882 79.8744C120.807 81.3105 120.429 82.671 119.37 83.7292Z" fill="#FFEE58"/>
<path d="M80.8222 86.2236C80.8222 85.5433 80.7466 84.7875 80.7466 84.1072C81.956 81.7641 82.863 79.2697 83.1654 76.6242C85.7353 75.0369 87.8517 77.2289 90.1948 77.3801C90.8751 77.6068 91.5554 77.9092 92.1601 78.2871C93.7474 79.3453 95.5614 79.95 96.9975 81.235C98.5093 82.3687 100.248 82.9734 101.986 83.6537C102.818 84.0316 103.573 84.5607 103.8 85.4678C103.876 86.2236 103.649 86.9039 103.271 87.5086C101.835 89.0203 101.759 91.439 99.643 92.4216C97.4511 92.6484 96.4684 94.538 94.8811 95.6718C92.9915 96.9568 91.0263 98.0905 89.0611 99.2243C86.4911 99.7534 85.2818 98.922 85.8865 96.1253C86.1132 95.1427 86.1132 94.1601 86.2644 93.1775C86.6423 90.1541 83.5433 89.4738 82.4095 87.5086C81.8804 87.1306 81.3513 86.6771 80.8222 86.2236Z" fill="#FFEE58"/>
<path d="M81.6529 73.5253C81.6529 74.2812 81.6529 75.037 81.6529 75.7929C81.5773 76.0196 81.5017 76.2464 81.5017 76.4732C80.3679 76.322 79.99 74.5079 78.4783 75.1882C77.4957 73.4497 76.1352 72.316 73.9432 72.6939C73.5652 71.6357 72.5826 71.4089 71.8268 70.9554C71.7512 70.5775 71.6 70.1996 71.5244 69.746C70.2395 67.8564 67.5184 67.1005 67.0649 64.4551C65.402 63.3969 65.0997 61.8096 65.7043 59.9955C65.9311 59.1641 66.4602 58.3326 66.3846 57.5012C66.2334 50.6229 69.7104 46.3901 76.6643 45.6342C78.3271 45.4831 79.2342 44.1981 80.7459 43.8958C81.5773 43.5178 82.4843 43.3667 83.089 44.1981C83.6181 44.8784 83.089 45.5587 82.5599 46.1633C79.99 49.2624 79.99 49.2624 83.9205 50.8496C85.0542 49.4135 83.996 46.6169 86.566 45.9366C86.9439 45.861 87.2462 45.861 87.6242 45.9366C88.9847 46.9948 90.7232 47.3727 92.1593 48.5065C92.4616 50.7741 94.956 49.5647 95.7874 50.8496C95.6362 51.6811 96.0142 52.7393 94.8804 53.0416C91.3279 53.7975 90.0429 57.4256 87.1706 59.0885C86.0369 59.7687 85.5833 60.9025 85.4322 62.1875C85.1298 62.641 84.7519 63.0945 84.4496 63.548C83.6937 64.5306 83.9961 65.9668 83.0134 66.8738C81.6529 67.1005 80.3679 66.1935 79.0074 66.647C77.798 67.025 76.3619 67.1761 76.2863 68.6878C76.2107 70.6531 78.1004 69.8216 79.083 70.1996C79.99 70.8798 80.6703 71.8624 81.5773 72.5427C81.8041 72.9206 81.8041 73.223 81.6529 73.5253Z" fill="#FFEE58"/>
<path d="M101.834 41.0991C103.195 42.0061 104.48 41.9305 102.364 44.4248C100.323 46.9192 98.9622 46.6924 96.6946 46.2389C94.2003 46.0877 94.0491 44.1225 93.5956 42.3084C93.9735 41.3258 93.7468 40.4944 92.9153 39.6629C96.1655 39.5118 98.8866 40.8723 101.834 41.0991Z" fill="#FFEE58"/>
<path d="M92.0839 44.0469C91.5548 46.4656 89.6652 46.4656 87.7755 46.39C87.4732 46.39 87.1708 46.3144 86.9441 46.3144C86.5662 45.2562 88.229 43.7445 86.1882 43.1398C86.1882 41.7793 86.8685 42.0816 87.6244 42.5352C89.0605 42.9887 90.5722 43.5178 92.0839 44.0469Z" fill="#FFEE58"/>
<path d="M84.5253 43.1399C83.3916 43.3666 82.1822 44.0469 81.3508 42.5352C82.3334 41.9305 83.3916 41.7793 84.5253 42.1572C84.7521 42.4596 84.7521 42.7619 84.5253 43.1399Z" fill="#FFEE58"/>
<path d="M84.5253 43.1399C84.5253 42.8375 84.5253 42.4596 84.5253 42.1572C85.5835 42.1572 86.7173 41.4014 87.6244 42.5352C87.1708 42.7619 86.6417 42.9131 86.1882 43.1398C85.5835 43.1398 85.0544 43.1399 84.5253 43.1399Z" fill="#FFEE58"/>
<path d="M86.7929 71.8623C86.7929 71.6356 86.7173 71.4088 86.6417 71.1821C86.7929 70.8041 87.0953 70.5018 87.5488 70.5774C87.9267 71.0309 87.8511 71.4088 87.5488 71.7867C87.322 71.8623 87.0953 71.8623 86.7929 71.8623Z" fill="#FFEE58"/>
<path d="M87.6244 71.8625C87.6244 71.4845 87.6244 71.031 87.6244 70.6531C87.8511 70.5775 88.0023 70.5775 88.229 70.6531C88.229 70.8798 88.3046 71.1066 88.3802 71.2578C88.3046 71.6357 88.0779 71.938 87.6244 71.8625Z" fill="#FFEE58"/>
<path d="M83.0136 69.5948C83.0136 69.368 83.0136 69.1412 83.0136 68.9901C83.4672 68.9901 83.6939 69.2168 83.6939 69.6703H83.3916L83.0136 69.5948Z" fill="#FFEE58"/>
<path d="M85.2057 70.4262C84.7522 70.4262 84.5255 70.1994 84.601 69.7459C85.0546 69.7459 85.2813 69.9727 85.2057 70.4262Z" fill="#FFEE58"/>
</svg>
