<svg width="182" height="182" viewBox="0 0 182 182" fill="none" xmlns="http://www.w3.org/2000/svg">
<rect width="182" height="182" fill="#FFEE58"/>
<path d="M126.1 133.52C122.753 132.131 117.006 130.299 109.68 130.362C101.218 130.426 94.713 133.078 91.3659 134.783C87.6398 133.394 81.956 131.815 74.946 131.625C66.6098 131.436 60.0418 133.267 56 134.783C56.1263 132.573 56.5684 129.415 57.8946 125.942C59.0314 122.973 60.4839 120.637 61.6838 118.995C64.7152 117.858 69.578 116.469 75.5775 116.469C82.6507 116.469 88.145 118.3 91.3659 119.626C93.7657 118.679 96.5444 117.795 99.5758 117.1C100.649 116.848 101.66 116.658 102.67 116.469C103.618 115.395 105.007 113.943 106.523 112.048C108.228 109.964 110.88 106.68 112.838 103.206C115.996 97.5858 116.817 92.3441 117.259 89.3127C117.764 85.9656 117.827 82.8711 117.701 80.2186C114.733 91.6494 104.375 100.049 91.9974 100.049C77.3458 100.049 65.473 88.176 65.473 73.5244C65.473 58.8728 77.3458 47 91.9974 47C102.102 47 110.88 52.6206 115.364 60.8937C117.511 64.7461 121.806 73.9665 121.048 86.1551C120.037 102.512 110.564 112.995 107.786 115.837C109.238 115.648 111.196 115.521 113.47 115.837C116.817 116.279 119.406 117.479 121.048 118.363C122.122 120.005 123.258 122.089 124.206 124.679C125.469 128.152 125.911 131.247 126.1 133.52Z" fill="#050505"/>
<path d="M111.448 64.6829C111.259 64.6829 111.006 64.7461 110.817 64.7461C109.933 65.1882 109.175 65.1882 108.606 64.1777C107.849 61.7779 109.491 60.3253 110.817 58.8097C111.827 58.3044 112.396 59.1254 112.964 59.6307C113.154 59.6938 113.343 59.8201 113.406 59.9464C113.406 61.1463 115.111 61.9042 114.227 63.2936C113.343 63.8619 112.333 64.1777 111.448 64.6829Z" fill="#FFEE58"/>
<path d="M115.997 82.0501V81.9869C115.744 82.5553 115.365 82.9342 114.797 83.1868C114.292 83.1868 113.976 82.9974 113.786 82.5553C113.597 81.608 113.786 80.6607 113.407 79.7134C112.523 77.5662 110.566 78.5135 109.05 78.1346C108.039 77.5662 107.597 76.6189 107.092 75.6716C106.461 74.2191 106.271 72.7034 106.082 71.1877C106.082 70.5562 106.271 69.9878 106.587 69.4826C108.229 68.03 108.482 65.4408 110.692 64.4935C111.008 64.4303 111.26 64.3671 111.576 64.3671C112.334 64.4935 113.029 64.6829 113.723 65.0618C115.239 66.1986 116.565 67.5248 116.944 69.4826C116.881 70.3036 117.323 71.0614 117.26 71.8824C117.26 73.2086 117.323 74.5348 117.197 75.8611C116.944 77.9451 116.186 79.966 115.997 82.0501Z" fill="#FFEE58"/>
<path d="M114.101 82.3658C114.291 82.5552 114.48 82.7447 114.669 82.9342C115.554 83.6288 114.48 84.4498 114.733 85.2077C114.543 85.4603 114.354 85.7761 114.164 86.0287C113.343 85.7129 113.47 84.8919 113.217 84.2604C112.901 83.692 112.838 83.1236 113.217 82.4921C113.533 82.3026 113.785 82.2395 114.101 82.3658Z" fill="#FFEE58"/>
<path d="M114.796 85.2077C113.533 84.513 115.049 83.6921 114.733 82.9342C114.922 82.2395 115.617 82.3027 116.059 81.9869C115.996 83.1868 115.68 84.3236 114.796 85.2077Z" fill="#FFEE58"/>
<path d="M82.5882 87.2918C82.5882 86.7234 82.525 86.0919 82.525 85.5235C83.5355 83.5658 84.2933 81.4817 84.5459 79.2713C86.6932 77.9451 88.4614 79.7766 90.4192 79.9029C90.9876 80.0923 91.556 80.345 92.0612 80.6607C93.3874 81.5449 94.9031 82.0501 96.103 83.1237C97.3661 84.071 98.8186 84.5762 100.271 85.1446C100.966 85.4604 101.597 85.9024 101.787 86.6603C101.85 87.2918 101.66 87.8602 101.345 88.3654C100.145 89.6285 100.082 91.6494 98.3134 92.4704C96.4819 92.6599 95.6609 94.2387 94.3347 95.186C92.7559 96.2596 91.1139 97.2069 89.4719 98.1542C87.3247 98.5963 86.3142 97.9016 86.8195 95.5649C87.0089 94.7439 87.0089 93.9229 87.1352 93.1019C87.451 90.5758 84.8617 90.0074 83.9144 88.3654C83.4723 88.0497 83.0303 87.6707 82.5882 87.2918Z" fill="#FFEE58"/>
<path d="M83.2822 76.6821C83.2822 77.3137 83.2822 77.9452 83.2822 78.5767C83.2191 78.7662 83.1559 78.9557 83.1559 79.1451C82.2086 79.0188 81.8929 77.5031 80.6298 78.0715C79.8088 76.619 78.672 75.6717 76.8406 75.9875C76.5248 75.1033 75.7038 74.9138 75.0723 74.5349C75.0091 74.2192 74.8828 73.9034 74.8197 73.5245C73.7461 71.9456 71.4726 71.3141 71.0936 69.1037C69.7043 68.2196 69.4517 66.8934 69.9569 65.3777C70.1463 64.683 70.5884 63.9883 70.5253 63.2936C70.399 57.5467 73.304 54.0101 79.1141 53.3786C80.5035 53.2523 81.2613 52.1786 82.5244 51.926C83.2191 51.6103 83.9769 51.484 84.4822 52.1786C84.9242 52.747 84.4821 53.3154 84.0401 53.8206C81.8929 56.4099 81.8929 56.4099 85.1768 57.7361C86.1241 56.5362 85.24 54.1996 87.3872 53.6312C87.703 53.568 87.9556 53.568 88.2714 53.6312C89.4081 54.5153 90.8606 54.8311 92.0606 55.7784C92.3132 57.673 94.3972 56.6625 95.0919 57.7361C94.9656 58.4308 95.2814 59.315 94.3341 59.5676C91.3659 60.1991 90.2923 63.2305 87.8924 64.6199C86.9451 65.1882 86.5662 66.1355 86.4399 67.2091C86.1873 67.5881 85.8715 67.967 85.6189 68.3459C84.9874 69.1669 85.24 70.3668 84.419 71.1246C83.2822 71.3141 82.2086 70.5563 81.0719 70.9352C80.0614 71.251 78.8615 71.3773 78.7984 72.6403C78.7352 74.2823 80.314 73.5876 81.135 73.9034C81.8929 74.4718 82.4612 75.2928 83.2191 75.8611C83.4085 76.1769 83.4085 76.4295 83.2822 76.6821Z" fill="#FFEE58"/>
<path d="M100.144 49.5893C101.281 50.3472 102.355 50.284 100.586 52.3681C98.8813 54.4521 97.7445 54.2627 95.8499 53.8838C93.7658 53.7574 93.6395 52.1155 93.2606 50.5998C93.5764 49.7788 93.3869 49.0841 92.6922 48.3894C95.4078 48.2631 97.6813 49.3999 100.144 49.5893Z" fill="#FFEE58"/>
<path d="M91.9976 52.0523C91.5555 54.0732 89.9767 54.0732 88.3978 54.01C88.1452 54.01 87.8926 53.9469 87.7031 53.9469C87.3874 53.0627 88.7767 51.7997 87.0716 51.2944C87.0716 50.1577 87.64 50.4103 88.2715 50.7892C89.4714 51.1681 90.7345 51.6102 91.9976 52.0523Z" fill="#FFEE58"/>
<path d="M85.6822 51.2945C84.7349 51.4839 83.7245 52.0523 83.0298 50.7892C83.8508 50.284 84.7349 50.1577 85.6822 50.4735C85.8717 50.7261 85.8717 50.9787 85.6822 51.2945Z" fill="#FFEE58"/>
<path d="M85.6822 51.2945C85.6822 51.0418 85.6822 50.7261 85.6822 50.4735C86.5664 50.4735 87.5137 49.8419 88.2715 50.7892C87.8926 50.9787 87.4505 51.105 87.0716 51.2944C86.5664 51.2944 86.1243 51.2945 85.6822 51.2945Z" fill="#FFEE58"/>
<path d="M87.5768 75.2927C87.5768 75.1032 87.5137 74.9138 87.4505 74.7243C87.5768 74.4085 87.8294 74.1559 88.2084 74.2191C88.5241 74.598 88.461 74.9137 88.2084 75.2295C88.0189 75.2927 87.8294 75.2927 87.5768 75.2927Z" fill="#FFEE58"/>
<path d="M88.2715 75.2928C88.2715 74.977 88.2715 74.5981 88.2715 74.2823C88.461 74.2192 88.5873 74.2192 88.7767 74.2823C88.7767 74.4718 88.8399 74.6612 88.903 74.7876C88.8399 75.1033 88.6504 75.3559 88.2715 75.2928Z" fill="#FFEE58"/>
<path d="M84.4192 73.3981C84.4192 73.2086 84.4192 73.0191 84.4192 72.8928C84.7981 72.8928 84.9875 73.0823 84.9875 73.4612H84.7349L84.4192 73.3981Z" fill="#FFEE58"/>
<path d="M86.2507 74.0927C85.8718 74.0927 85.6823 73.9033 85.7455 73.5244C86.1244 73.5244 86.3138 73.7138 86.2507 74.0927Z" fill="#FFEE58"/>
</svg>
